<svg xmlns="http://www.w3.org/2000/svg" width="40" height="40" viewBox="0 0 40 40">
  <g id="Layer_2" data-name="Layer 2" transform="translate(-2 -2)">
    <path id="Path_1785" data-name="Path 1785" d="M37.64,6.36C33.6,2.32,24.64,2,22,2S10.4,2.32,6.36,6.36,2,19.36,2,22s.32,11.6,4.36,15.64S19.36,42,22,42s11.6-.32,15.64-4.36S42,24.64,42,22,41.68,10.4,37.64,6.36ZM26,34H18a2,2,0,0,1,0-4h8a2,2,0,0,1,0,4Zm3.42-12.58-6,6a2,2,0,0,1-2.84,0l-6-6a2.008,2.008,0,0,1,2.84-2.84L20,21.18V12a2,2,0,0,1,4,0v9.18l2.58-2.6a2.008,2.008,0,1,1,2.84,2.84Z" transform="translate(0 0)" fill="#2bdafa"/>
  </g>
</svg>
